<svg width="384" height="73" viewBox="0 0 384 73" fill="none" xmlns="http://www.w3.org/2000/svg">
<path d="M13.3125 43.7812C13.3438 43.6562 13.4062 43.6094 13.5 43.6406C13.625 43.6406 13.7344 43.625 13.8281 43.5938C13.5781 43.3438 13.4219 43.0156 13.3594 42.6094C13.2969 42.1719 13.1406 41.8125 12.8906 41.5312C12.9531 41.375 13 41.2188 13.0312 41.0625C13.0938 40.9062 13.2344 40.8438 13.4531 40.875C13.3594 40.1875 13.375 39.5469 13.5 38.9531C13.625 38.3594 13.8125 37.7969 14.0625 37.2656C14.3438 36.7344 14.6562 36.2188 15 35.7188C15.375 35.1875 15.7344 34.6562 16.0781 34.125C16.3594 34.0625 16.5312 34.0938 16.5938 34.2188C16.6562 34.3125 16.7656 34.2812 16.9219 34.125C17.4219 33.7812 17.7656 33.4062 17.9531 33C18.1406 32.5625 18.2344 32.0938 18.2344 31.5938C18.5156 30.7812 18.8281 29.9844 19.1719 29.2031C19.5469 28.3906 19.9688 27.6406 20.4375 26.9531C20.9062 26.2656 21.4062 25.6719 21.9375 25.1719C22.4688 24.6406 23.0469 24.2344 23.6719 23.9531C24.1094 23.5781 24.6562 23.2344 25.3125 22.9219C26 22.6094 26.7188 22.375 27.4688 22.2188C28.25 22.0312 29.0469 21.9375 29.8594 21.9375C30.6719 21.9062 31.4219 21.9844 32.1094 22.1719C32.2656 22.2344 32.3594 22.2031 32.3906 22.0781C32.4219 21.9219 32.5 21.8438 32.625 21.8438C34.1875 22.0312 35.5781 22.3438 36.7969 22.7812C38.0469 23.2188 39.1094 23.8281 39.9844 24.6094C40.5781 25.5469 41.1406 26.5625 41.6719 27.6562C42.2031 28.7188 42.6094 29.8438 42.8906 31.0312C43.2031 32.1875 43.3438 33.3906 43.3125 34.6406C43.2812 35.8906 43.0156 37.1406 42.5156 38.3906C41.4219 39.7656 40.0938 40.875 38.5312 41.7188C36.9688 42.5312 35.2812 43.2188 33.4688 43.7812C31.6875 44.3125 29.8281 44.75 27.8906 45.0938C25.9844 45.4375 24.125 45.8125 22.3125 46.2188C22.3438 47.0625 22.3438 47.9688 22.3125 48.9375C22.2812 49.875 22.1719 50.8281 21.9844 51.7969C21.8281 52.7344 21.5781 53.6562 21.2344 54.5625C20.9219 55.4688 20.4844 56.3125 19.9219 57.0938C19.2969 57.0625 18.6406 57.125 17.9531 57.2812C17.2969 57.4375 16.7031 57.5938 16.1719 57.75C15.9219 57.5938 15.6719 57.4375 15.4219 57.2812C15.2031 57.1562 14.9219 57.0781 14.5781 57.0469C14.6719 56.6719 14.5781 56.2812 14.2969 55.875C14.0469 55.4688 13.7812 55.0781 13.5 54.7031C13.25 54.2969 13.0781 53.9062 12.9844 53.5312C12.9219 53.125 13.1094 52.7656 13.5469 52.4531C13.2969 52.2344 13.1719 51.8906 13.1719 51.4219C13.2969 51.5469 13.4531 51.6094 13.6406 51.6094C13.5781 51.0469 13.6406 50.375 13.8281 49.5938C14.0469 48.8125 14.2188 48.0469 14.3438 47.2969C14.5 46.5156 14.5312 45.8125 14.4375 45.1875C14.3438 44.5312 13.9688 44.0625 13.3125 43.7812ZM25.5 32.8125C25.375 33.1562 25.2656 33.4688 25.1719 33.75C25.1094 34 25.0312 34.2344 24.9375 34.4531C24.8438 34.6719 24.7344 34.8906 24.6094 35.1094C24.5156 35.3281 24.4062 35.5781 24.2812 35.8594C24.3438 36.0469 24.4688 36.1875 24.6562 36.2812C24.8438 36.375 24.9688 36.5156 25.0312 36.7031C25.4688 36.4844 25.9062 36.3281 26.3438 36.2344C26.7812 36.1094 27.2188 36.0156 27.6562 35.9531C28.0938 35.8906 28.5312 35.8125 28.9688 35.7188C29.4062 35.625 29.8594 35.4688 30.3281 35.25C30.7969 35.0312 31.2812 34.8594 31.7812 34.7344C32.3125 34.5781 32.8281 34.4219 33.3281 34.2656C33.8281 34.1094 34.3125 33.9375 34.7812 33.75C35.25 33.5312 35.6562 33.25 36 32.9062C35.5625 32.5 34.9062 32.1406 34.0312 31.8281C33.1562 31.5156 32.2031 31.3281 31.1719 31.2656C30.1719 31.1719 29.1562 31.2344 28.125 31.4531C27.125 31.6719 26.25 32.125 25.5 32.8125ZM49.4531 52.125C49.1094 53.375 48.7969 54.3281 48.5156 54.9844C48.2656 55.6094 47.875 56.2656 47.3438 56.9531C46.9375 56.8906 46.6562 56.9375 46.5 57.0938C46.3438 57.25 46.1719 57.3906 45.9844 57.5156C45.7031 57.5781 45.5 57.5781 45.375 57.5156C45.25 57.4531 45.1406 57.375 45.0469 57.2812C44.9531 57.2188 44.8281 57.1406 44.6719 57.0469C44.5469 56.9844 44.3438 56.9531 44.0625 56.9531C44 56.7031 43.9219 56.4688 43.8281 56.25C43.7656 56.0312 43.5625 55.9531 43.2188 56.0156C43.2812 55.7656 43.2969 55.5625 43.2656 55.4062C43.2344 55.2188 43.1875 55.0625 43.125 54.9375C43.0938 54.7812 43.0625 54.6406 43.0312 54.5156C43 54.3594 43.0156 54.1719 43.0781 53.9531C42.9219 53.9531 42.7969 53.8438 42.7031 53.625C42.6094 53.4062 42.5 53.1875 42.375 52.9688C42.4688 52.4062 42.5625 51.875 42.6562 51.375C42.75 50.875 42.8594 50.4062 42.9844 49.9688C43.1406 49.5312 43.2656 49.0938 43.3594 48.6562C43.4531 48.2188 43.4062 47.7656 43.2188 47.2969C43.3438 47.3906 43.4375 47.375 43.5 47.25C43.5625 47.0938 43.6094 46.9062 43.6406 46.6875C43.6719 46.4375 43.6875 46.2031 43.6875 45.9844C43.6875 45.7344 43.6719 45.5312 43.6406 45.375C43.9531 44.5625 44.2031 43.7344 44.3906 42.8906C44.6094 42.0156 44.7969 41.1562 44.9531 40.3125C45.1406 39.4688 45.3281 38.6406 45.5156 37.8281C45.7031 37.0156 45.9531 36.2656 46.2656 35.5781C46.6094 35.5156 46.9844 35.5625 47.3906 35.7188C47.8281 35.8438 48.0938 36.0156 48.1875 36.2344C49 35.6094 49.7188 34.8594 50.3438 33.9844C50.9688 33.0781 51.6094 32.2031 52.2656 31.3594C52.9219 30.5156 53.6406 29.7656 54.4219 29.1094C55.2344 28.4531 56.25 28.0625 57.4688 27.9375C58.0938 28.4062 58.7812 28.8906 59.5312 29.3906C60.3125 29.8594 60.9531 30.4844 61.4531 31.2656C61.7031 31.3906 61.9062 31.5312 62.0625 31.6875C62.25 31.8125 62.4688 31.9531 62.7188 32.1094V32.6719C63.0938 33.0156 63.3906 33.4219 63.6094 33.8906C63.8594 34.3281 64.0781 34.8125 64.2656 35.3438C64.4531 35.8438 64.6406 36.3594 64.8281 36.8906C65.0156 37.3906 65.2344 37.875 65.4844 38.3438C65.4219 38.5 65.3906 38.6406 65.3906 38.7656C65.3906 38.8594 65.4062 38.9688 65.4375 39.0938C65.5 39.2188 65.5469 39.3438 65.5781 39.4688C65.6094 39.5938 65.6094 39.7656 65.5781 39.9844C65.4844 41.3594 65.0312 42.4688 64.2188 43.3125C63.4375 44.1562 62.4844 44.8594 61.3594 45.4219C60.2344 45.9531 59.0312 46.4062 57.75 46.7812C56.4688 47.1562 55.3125 47.5625 54.2812 48C54.2812 48.125 54.3281 48.1875 54.4219 48.1875C54.5469 48.1875 54.5938 48.2656 54.5625 48.4219C55.3125 48.8906 55.9062 49.2656 56.3438 49.5469C56.7812 49.8281 57.1875 50.0625 57.5625 50.25C57.9688 50.4375 58.3906 50.6094 58.8281 50.7656C59.2969 50.8906 59.9375 51.0469 60.75 51.2344C61.5625 51.4219 62.1875 51.5781 62.625 51.7031C63.0938 51.7969 63.5156 51.8906 63.8906 51.9844C64.2656 52.0469 64.6406 52.1094 65.0156 52.1719C65.4219 52.2031 65.9844 52.25 66.7031 52.3125C66.9844 52.5938 67.2188 52.9375 67.4062 53.3438C67.625 53.7188 67.7656 54.1094 67.8281 54.5156C67.8906 54.8906 67.9062 55.2656 67.875 55.6406C67.8438 55.9844 67.7344 56.2656 67.5469 56.4844C67.5781 56.5781 67.6406 56.625 67.7344 56.625C67.8594 56.5938 67.9844 56.5938 68.1094 56.625C67.9219 56.75 67.7656 56.9062 67.6406 57.0938C67.5156 57.2812 67.3906 57.4688 67.2656 57.6562C67.1406 57.8438 67 58 66.8438 58.125C66.6875 58.2812 66.4688 58.375 66.1875 58.4062C65.2188 58.7812 64 58.7969 62.5312 58.4531C61.0625 58.1406 59.2031 57.5469 56.9531 56.6719C55.8281 56.2344 54.9062 55.8594 54.1875 55.5469C53.5 55.2031 52.8906 54.875 52.3594 54.5625C51.8594 54.2188 51.3906 53.8594 50.9531 53.4844C50.5469 53.1094 50.0469 52.6562 49.4531 52.125ZM56.1562 36.0469C55.8125 36.5469 55.4219 37 54.9844 37.4062C54.5781 37.8125 54.1719 38.2344 53.7656 38.6719C53.3906 39.0781 53.0469 39.5469 52.7344 40.0781C52.4219 40.5781 52.2031 41.1719 52.0781 41.8594C53.1719 41.7344 54.3125 41.4375 55.5 40.9688C56.6875 40.4688 57.8125 40 58.875 39.5625C58.75 38.5938 58.4062 37.8125 57.8438 37.2188C57.3125 36.625 56.75 36.2344 56.1562 36.0469ZM95.2031 42.9375C95.1719 43.3125 95.2031 43.6719 95.2969 44.0156C95.3906 44.3594 95.5 44.7031 95.625 45.0469C95.7812 45.3594 95.9219 45.6875 96.0469 46.0312C96.1719 46.375 96.2656 46.7188 96.3281 47.0625C96.3906 47.5 96.3906 47.9844 96.3281 48.5156C96.2656 49.0156 96.1562 49.5156 96 50.0156C95.8438 50.4844 95.6406 50.9219 95.3906 51.3281C95.1406 51.7031 94.8438 51.9844 94.5 52.1719C94.0625 52.7344 93.5312 53.1719 92.9062 53.4844C92.2812 53.7969 91.7031 54.1719 91.1719 54.6094C90.8281 54.8281 90.4375 54.9844 90 55.0781C89.5938 55.1719 89.1719 55.2656 88.7344 55.3594C88.3906 55.5469 87.9844 55.75 87.5156 55.9688C87.0469 56.1562 86.5625 56.3438 86.0625 56.5312C85.5625 56.6875 85.0625 56.8125 84.5625 56.9062C84.0625 56.9688 83.625 56.9844 83.25 56.9531C82.3125 57.2969 81.3906 57.5156 80.4844 57.6094C79.6094 57.7344 78.5781 57.6719 77.3906 57.4219C76.2656 57.5781 75.2188 57.5312 74.25 57.2812C73.3125 57.0312 72.4688 56.6406 71.7188 56.1094C71 55.5469 70.3594 54.8906 69.7969 54.1406C69.2656 53.3594 68.8281 52.5469 68.4844 51.7031C68.2344 49.9219 68.2969 48.3125 68.6719 46.875C69.0469 45.4062 69.5781 44.0625 70.2656 42.8438C70.9844 41.5938 71.7969 40.4531 72.7031 39.4219C73.6094 38.3594 74.4844 37.3281 75.3281 36.3281C75.5156 36.3906 75.6562 36.3906 75.75 36.3281C75.875 36.2344 75.9844 36.125 76.0781 36C76.1719 35.8438 76.2656 35.7031 76.3594 35.5781C76.4844 35.4531 76.625 35.375 76.7812 35.3438C77 34.875 77.3125 34.5312 77.7188 34.3125C78.1562 34.0625 78.5 33.7188 78.75 33.2812C79.0312 33.2188 79.2656 33.125 79.4531 33C79.6406 32.875 79.8125 32.7344 79.9688 32.5781C80.1562 32.4219 80.3438 32.2812 80.5312 32.1562C80.7188 32 80.9375 31.8906 81.1875 31.8281V31.3125C81.75 31.0625 82.1562 30.7812 82.4062 30.4688C82.6875 30.125 83.0156 29.7188 83.3906 29.25C83.6719 29.2188 83.8906 29.2031 84.0469 29.2031C84.2344 29.2031 84.5 29.1719 84.8438 29.1094C85.0938 28.6719 85.3125 28.3438 85.5 28.125C85.7188 27.9062 86.0312 27.6719 86.4375 27.4219C86.8125 27.6094 87.2188 27.7344 87.6562 27.7969C88.125 27.8594 88.5312 28.0625 88.875 28.4062C88.9062 28.7188 89 28.9688 89.1562 29.1562C89.3125 29.3125 89.4844 29.4688 89.6719 29.625C89.8594 29.75 90.0312 29.8906 90.1875 30.0469C90.375 30.2031 90.5 30.4219 90.5625 30.7031C90.6875 30.7344 90.7656 30.7188 90.7969 30.6562C90.8594 30.5938 90.9531 30.5781 91.0781 30.6094C91.1719 31.0469 91.2812 31.3438 91.4062 31.5C91.5312 31.625 91.6562 31.8906 91.7812 32.2969C91.625 32.6094 91.5 32.9375 91.4062 33.2812C91.3438 33.5938 91.1562 33.8281 90.8438 33.9844C90.8125 34.2031 90.875 34.3281 91.0312 34.3594C91.1875 34.3594 91.2812 34.4375 91.3125 34.5938C91.3438 34.875 91.2969 35.0781 91.1719 35.2031C91.9219 36.4219 92.5938 37.7188 93.1875 39.0938C93.7812 40.4375 94.4531 41.7188 95.2031 42.9375ZM89.3438 47.3906C89.4688 47.0469 89.625 46.7656 89.8125 46.5469C90.0312 46.3281 90.1562 46 90.1875 45.5625C90.0312 45.3125 89.9375 45.125 89.9062 45C89.875 44.8438 89.8594 44.6094 89.8594 44.2969C89.1719 43.3281 88.5781 42.2969 88.0781 41.2031C87.5781 40.0781 87.0156 39.0312 86.3906 38.0625C86.3281 38.1875 86.2188 38.3125 86.0625 38.4375C85.9062 38.5625 85.7344 38.5312 85.5469 38.3438C85.4844 38.5938 85.375 38.7812 85.2188 38.9062C85.0625 39 84.8906 39.0469 84.7031 39.0469C84.5156 39.0156 84.3125 38.9688 84.0938 38.9062C83.9062 38.8125 83.7344 38.7031 83.5781 38.5781C82.6719 39.2969 81.7656 40 80.8594 40.6875C79.9531 41.375 79.1406 42.1719 78.4219 43.0781C78.2969 43.1406 78.2188 43.1719 78.1875 43.1719C78.1562 43.1406 78.0625 43.1562 77.9062 43.2188C77.6562 43.8125 77.3438 44.3594 76.9688 44.8594C76.625 45.3281 76.2812 45.8125 75.9375 46.3125C75.5938 46.8125 75.2969 47.3438 75.0469 47.9062C74.7969 48.4688 74.6562 49.125 74.625 49.875C75.1562 50.3125 75.7812 50.5781 76.5 50.6719C77.2188 50.7656 77.9531 50.7812 78.7031 50.7188C79.4844 50.6562 80.2344 50.5625 80.9531 50.4375C81.7031 50.2812 82.3906 50.2031 83.0156 50.2031C84.3281 49.8906 85.4531 49.4844 86.3906 48.9844C87.3281 48.4531 88.3125 47.9219 89.3438 47.3906ZM112.219 48.75C112.188 49.1875 112.078 49.6094 111.891 50.0156C111.734 50.3906 111.531 50.7656 111.281 51.1406C111.031 51.4844 110.75 51.8281 110.438 52.1719C110.156 52.4844 109.875 52.7656 109.594 53.0156C109.688 53.4219 109.688 53.7344 109.594 53.9531C109.531 54.1406 109.516 54.4375 109.547 54.8438C109.078 56.0938 108.359 56.9219 107.391 57.3281C106.453 57.7656 105.562 57.6875 104.719 57.0938C104.375 56.8438 104.078 56.5312 103.828 56.1562C103.609 55.75 103.297 55.5 102.891 55.4062C102.984 54.875 102.938 54.3438 102.75 53.8125C102.562 53.2812 102.359 53 102.141 52.9688C102.047 52.3125 101.906 51.6094 101.719 50.8594C101.531 50.1094 101.359 49.3594 101.203 48.6094C101.047 47.8281 100.906 47.0781 100.781 46.3594C100.688 45.6094 100.656 44.9219 100.688 44.2969C100.719 43.9844 100.656 43.7031 100.5 43.4531C100.375 43.2031 100.281 42.9062 100.219 42.5625C100.094 41.8438 100.047 41.0938 100.078 40.3125C100.141 39.5 100.172 38.7344 100.172 38.0156C100.172 37.3281 100.125 36.5938 100.031 35.8125C99.9688 35 99.9062 34.2344 99.8438 33.5156C99.7812 32.7656 99.75 32.0938 99.75 31.5C99.75 30.875 99.8281 30.3906 99.9844 30.0469C100.172 29.6719 100.422 29.375 100.734 29.1562C101.078 28.9062 101.391 28.6406 101.672 28.3594C102.359 28.4219 102.906 28.7031 103.312 29.2031C103.719 29.7031 103.875 30.1719 103.781 30.6094C104.438 31.0156 104.953 31.5469 105.328 32.2031C105.734 32.8281 106.047 33.5469 106.266 34.3594C106.516 35.1406 106.688 35.9844 106.781 36.8906C106.875 37.7656 106.953 38.6406 107.016 39.5156C107.078 40.3594 107.141 41.1719 107.203 41.9531C107.266 42.7344 107.391 43.4062 107.578 43.9688C108.734 42.3125 109.703 40.8438 110.484 39.5625C111.266 38.25 112.062 37 112.875 35.8125C113.688 34.625 114.594 33.4219 115.594 32.2031C116.594 30.9844 117.891 29.6094 119.484 28.0781C119.797 28.1094 120.047 28.1719 120.234 28.2656C120.453 28.3594 120.641 28.4375 120.797 28.5C120.953 28.5625 121.141 28.625 121.359 28.6875C121.578 28.7188 121.875 28.7031 122.25 28.6406C122.375 28.9531 122.469 29.1875 122.531 29.3438C122.594 29.4688 122.641 29.6094 122.672 29.7656C122.734 29.8906 122.797 30.0625 122.859 30.2812C122.953 30.5 123.094 30.8125 123.281 31.2188C123.375 31.3125 123.406 31.4375 123.375 31.5938C123.344 31.75 123.312 31.9062 123.281 32.0625C123.281 32.1875 123.281 32.2812 123.281 32.3438C123.281 32.4062 123.359 32.4062 123.516 32.3438C123.422 32.7812 123.25 33.1875 123 33.5625C122.781 33.9062 122.688 34.3281 122.719 34.8281C122 35.7656 121.203 36.7344 120.328 37.7344C119.484 38.7344 118.625 39.7656 117.75 40.8281C116.906 41.8906 116.094 43.0156 115.312 44.2031C114.531 45.3594 113.859 46.5781 113.297 47.8594C113.141 47.8594 113.016 47.9062 112.922 48C112.859 48.0938 112.797 48.2031 112.734 48.3281C112.672 48.4219 112.594 48.5156 112.5 48.6094C112.438 48.7031 112.344 48.75 112.219 48.75ZM146.062 30.6094C146.094 30.8281 146.094 31 146.062 31.125C146.062 31.2188 146.047 31.3125 146.016 31.4062C146.016 31.5 146.016 31.6094 146.016 31.7344C146.016 31.8281 146.047 31.9844 146.109 32.2031C145.453 33.2656 144.688 34 143.812 34.4062C142.969 34.7812 142.047 35.0625 141.047 35.25C140.047 35.4062 139.016 35.5781 137.953 35.7656C136.922 35.9531 135.891 36.3594 134.859 36.9844C134.453 36.8281 134.078 36.8281 133.734 36.9844C133.422 37.1406 132.953 37.1875 132.328 37.125C132.141 37.3125 131.906 37.4531 131.625 37.5469C131.344 37.6094 131.062 37.6875 130.781 37.7812C130.906 38.0625 130.953 38.3594 130.922 38.6719C130.922 38.9531 130.969 39.1875 131.062 39.375C132.156 39.4688 133.359 39.4531 134.672 39.3281C136.016 39.2031 137.328 39.125 138.609 39.0938C138.641 39.25 138.625 39.3594 138.562 39.4219C138.5 39.4531 138.484 39.5312 138.516 39.6562C138.734 39.8125 138.953 40.0156 139.172 40.2656C139.391 40.4844 139.609 40.7031 139.828 40.9219C140.047 41.1406 140.266 41.3281 140.484 41.4844C140.734 41.6094 141.016 41.6562 141.328 41.625C141.453 41.875 141.531 42.1562 141.562 42.4688C141.625 42.75 141.594 43.0469 141.469 43.3594C140.969 43.7031 140.469 44.0625 139.969 44.4375C139.469 44.7812 138.938 45.0938 138.375 45.375C137.844 45.6562 137.266 45.8906 136.641 46.0781C136.047 46.2344 135.375 46.2969 134.625 46.2656C134.469 46.2656 134.344 46.2656 134.25 46.2656C134.188 46.2656 134.094 46.2188 133.969 46.125C133.719 46.2812 133.359 46.3281 132.891 46.2656C132.453 46.2031 132.109 46.25 131.859 46.4062C131.516 46.25 131.094 46.1875 130.594 46.2188C130.125 46.2188 129.703 46.1562 129.328 46.0312C128.828 46.6875 128.375 47.3906 127.969 48.1406C127.562 48.8906 127.203 49.6875 126.891 50.5312C127.953 50.6875 128.828 50.75 129.516 50.7188C130.234 50.6875 130.906 50.6406 131.531 50.5781C132.156 50.4844 132.797 50.4062 133.453 50.3438C134.109 50.25 134.938 50.2188 135.938 50.25C136.562 49.9062 137.297 49.6875 138.141 49.5938C139.016 49.4688 139.812 49.2812 140.531 49.0312C140.781 49.125 141 49.2969 141.188 49.5469C141.375 49.7656 141.547 49.9844 141.703 50.2031C141.891 50.3906 142.078 50.5625 142.266 50.7188C142.453 50.875 142.688 50.9375 142.969 50.9062C143.094 51.0312 143.172 51.1875 143.203 51.375C143.266 51.5312 143.312 51.6875 143.344 51.8438C143.375 52 143.422 52.1406 143.484 52.2656C143.578 52.3594 143.719 52.3906 143.906 52.3594C143.438 53.3906 142.891 54.1875 142.266 54.75C141.672 55.2812 140.984 55.6875 140.203 55.9688C139.422 56.25 138.547 56.4688 137.578 56.625C136.641 56.7812 135.594 56.9688 134.438 57.1875C134.156 57.25 133.922 57.2344 133.734 57.1406C133.547 57.0781 133.328 57.0469 133.078 57.0469C132.359 57.2031 131.5 57.3438 130.5 57.4688C129.5 57.5938 128.484 57.6406 127.453 57.6094C126.422 57.5781 125.438 57.4375 124.5 57.1875C123.562 56.9688 122.797 56.5625 122.203 55.9688C121.953 55.75 121.781 55.5 121.688 55.2188C121.625 54.9062 121.422 54.6719 121.078 54.5156C121.047 54.1094 120.984 53.6562 120.891 53.1562C120.797 52.6562 120.703 52.1406 120.609 51.6094C120.516 51.0469 120.438 50.5 120.375 49.9688C120.344 49.4375 120.375 48.9531 120.469 48.5156C120.562 48.0469 120.75 47.625 121.031 47.25C121.344 46.875 121.453 46.4688 121.359 46.0312C121.516 46 121.609 45.9219 121.641 45.7969C121.672 45.6406 121.797 45.5781 122.016 45.6094C122.203 45.0469 122.406 44.5156 122.625 44.0156C122.844 43.5156 123.062 43.0312 123.281 42.5625C123.531 42.0938 123.766 41.625 123.984 41.1562C124.234 40.6562 124.469 40.1094 124.688 39.5156C124.25 39.1094 123.922 38.6719 123.703 38.2031C123.516 37.7031 123.375 37.2188 123.281 36.75C123.188 36.25 123.109 35.75 123.047 35.25C122.984 34.7188 122.875 34.1875 122.719 33.6562C123.031 33.1875 123.406 32.8125 123.844 32.5312C124.312 32.2188 124.812 31.9688 125.344 31.7812C125.875 31.5938 126.453 31.4375 127.078 31.3125C127.703 31.1875 128.359 31.0469 129.047 30.8906C130.297 30.4844 131.406 30.1719 132.375 29.9531C133.375 29.7344 134.344 29.5625 135.281 29.4375C136.25 29.2812 137.25 29.1406 138.281 29.0156C139.312 28.8906 140.484 28.7031 141.797 28.4531C142.078 28.7344 142.344 28.875 142.594 28.875C142.719 28.5938 142.859 28.5156 143.016 28.6406C143.203 28.7344 143.281 28.6406 143.25 28.3594C143.562 28.8906 143.953 29.3438 144.422 29.7188C144.922 30.0625 145.469 30.3594 146.062 30.6094ZM152.016 52.125C151.672 53.375 151.359 54.3281 151.078 54.9844C150.828 55.6094 150.438 56.2656 149.906 56.9531C149.5 56.8906 149.219 56.9375 149.062 57.0938C148.906 57.25 148.734 57.3906 148.547 57.5156C148.266 57.5781 148.062 57.5781 147.938 57.5156C147.812 57.4531 147.703 57.375 147.609 57.2812C147.516 57.2188 147.391 57.1406 147.234 57.0469C147.109 56.9844 146.906 56.9531 146.625 56.9531C146.562 56.7031 146.484 56.4688 146.391 56.25C146.328 56.0312 146.125 55.9531 145.781 56.0156C145.844 55.7656 145.859 55.5625 145.828 55.4062C145.797 55.2188 145.75 55.0625 145.688 54.9375C145.656 54.7812 145.625 54.6406 145.594 54.5156C145.562 54.3594 145.578 54.1719 145.641 53.9531C145.484 53.9531 145.359 53.8438 145.266 53.625C145.172 53.4062 145.062 53.1875 144.938 52.9688C145.031 52.4062 145.125 51.875 145.219 51.375C145.312 50.875 145.422 50.4062 145.547 49.9688C145.703 49.5312 145.828 49.0938 145.922 48.6562C146.016 48.2188 145.969 47.7656 145.781 47.2969C145.906 47.3906 146 47.375 146.062 47.25C146.125 47.0938 146.172 46.9062 146.203 46.6875C146.234 46.4375 146.25 46.2031 146.25 45.9844C146.25 45.7344 146.234 45.5312 146.203 45.375C146.516 44.5625 146.766 43.7344 146.953 42.8906C147.172 42.0156 147.359 41.1562 147.516 40.3125C147.703 39.4688 147.891 38.6406 148.078 37.8281C148.266 37.0156 148.516 36.2656 148.828 35.5781C149.172 35.5156 149.547 35.5625 149.953 35.7188C150.391 35.8438 150.656 36.0156 150.75 36.2344C151.562 35.6094 152.281 34.8594 152.906 33.9844C153.531 33.0781 154.172 32.2031 154.828 31.3594C155.484 30.5156 156.203 29.7656 156.984 29.1094C157.797 28.4531 158.812 28.0625 160.031 27.9375C160.656 28.4062 161.344 28.8906 162.094 29.3906C162.875 29.8594 163.516 30.4844 164.016 31.2656C164.266 31.3906 164.469 31.5312 164.625 31.6875C164.812 31.8125 165.031 31.9531 165.281 32.1094V32.6719C165.656 33.0156 165.953 33.4219 166.172 33.8906C166.422 34.3281 166.641 34.8125 166.828 35.3438C167.016 35.8438 167.203 36.3594 167.391 36.8906C167.578 37.3906 167.797 37.875 168.047 38.3438C167.984 38.5 167.953 38.6406 167.953 38.7656C167.953 38.8594 167.969 38.9688 168 39.0938C168.062 39.2188 168.109 39.3438 168.141 39.4688C168.172 39.5938 168.172 39.7656 168.141 39.9844C168.047 41.3594 167.594 42.4688 166.781 43.3125C166 44.1562 165.047 44.8594 163.922 45.4219C162.797 45.9531 161.594 46.4062 160.312 46.7812C159.031 47.1562 157.875 47.5625 156.844 48C156.844 48.125 156.891 48.1875 156.984 48.1875C157.109 48.1875 157.156 48.2656 157.125 48.4219C157.875 48.8906 158.469 49.2656 158.906 49.5469C159.344 49.8281 159.75 50.0625 160.125 50.25C160.531 50.4375 160.953 50.6094 161.391 50.7656C161.859 50.8906 162.5 51.0469 163.312 51.2344C164.125 51.4219 164.75 51.5781 165.188 51.7031C165.656 51.7969 166.078 51.8906 166.453 51.9844C166.828 52.0469 167.203 52.1094 167.578 52.1719C167.984 52.2031 168.547 52.25 169.266 52.3125C169.547 52.5938 169.781 52.9375 169.969 53.3438C170.188 53.7188 170.328 54.1094 170.391 54.5156C170.453 54.8906 170.469 55.2656 170.438 55.6406C170.406 55.9844 170.297 56.2656 170.109 56.4844C170.141 56.5781 170.203 56.625 170.297 56.625C170.422 56.5938 170.547 56.5938 170.672 56.625C170.484 56.75 170.328 56.9062 170.203 57.0938C170.078 57.2812 169.953 57.4688 169.828 57.6562C169.703 57.8438 169.562 58 169.406 58.125C169.25 58.2812 169.031 58.375 168.75 58.4062C167.781 58.7812 166.562 58.7969 165.094 58.4531C163.625 58.1406 161.766 57.5469 159.516 56.6719C158.391 56.2344 157.469 55.8594 156.75 55.5469C156.062 55.2031 155.453 54.875 154.922 54.5625C154.422 54.2188 153.953 53.8594 153.516 53.4844C153.109 53.1094 152.609 52.6562 152.016 52.125ZM158.719 36.0469C158.375 36.5469 157.984 37 157.547 37.4062C157.141 37.8125 156.734 38.2344 156.328 38.6719C155.953 39.0781 155.609 39.5469 155.297 40.0781C154.984 40.5781 154.766 41.1719 154.641 41.8594C155.734 41.7344 156.875 41.4375 158.062 40.9688C159.25 40.4688 160.375 40 161.438 39.5625C161.312 38.5938 160.969 37.8125 160.406 37.2188C159.875 36.625 159.312 36.2344 158.719 36.0469ZM196.172 49.3594C196.359 49.4531 196.469 49.6094 196.5 49.8281C196.531 50.0469 196.531 50.2188 196.5 50.3438C195.938 51.0625 195.547 51.5625 195.328 51.8438C195.109 52.125 194.953 52.3438 194.859 52.5C194.766 52.625 194.656 52.7344 194.531 52.8281C194.438 52.9219 194.203 53.125 193.828 53.4375C192.422 54.2812 190.969 55.0312 189.469 55.6875C188 56.3438 186.453 56.7969 184.828 57.0469C184.578 57.3906 184.094 57.625 183.375 57.75C182.688 57.9062 182.047 58.0469 181.453 58.1719C181.328 58.1094 181.25 58.0156 181.219 57.8906C181.219 57.7969 181.156 57.7188 181.031 57.6562C181 57.9688 180.859 58.125 180.609 58.125C180.359 58.1562 180.047 58.0938 179.672 57.9375C179.328 57.8125 178.953 57.625 178.547 57.375C178.172 57.1562 177.844 56.9531 177.562 56.7656C177.406 57.0156 177.234 57.2656 177.047 57.5156C176.891 57.7656 176.688 57.9375 176.438 58.0312C176.094 57.9688 175.828 57.9219 175.641 57.8906C175.484 57.8594 175.328 57.9219 175.172 58.0781C174.984 57.9844 174.828 57.875 174.703 57.75C174.609 57.625 174.5 57.5 174.375 57.375C174.281 57.2812 174.156 57.1875 174 57.0938C173.875 57 173.688 56.9219 173.438 56.8594C173.5 56.7344 173.469 56.5469 173.344 56.2969C173.219 56.0156 173.031 55.8438 172.781 55.7812C172.906 55.5625 172.844 55.2969 172.594 54.9844C172.375 54.6406 172.203 54.2656 172.078 53.8594C172.141 53.5156 172.188 53.1406 172.219 52.7344C172.25 52.3281 172.438 52.0938 172.781 52.0312C172.75 51.8125 172.703 51.625 172.641 51.4688C172.578 51.3125 172.516 51.1562 172.453 51C172.672 50.8125 172.828 50.5938 172.922 50.3438C173.016 50.0625 173.094 49.7812 173.156 49.5C173.219 49.2188 173.297 48.9375 173.391 48.6562C173.484 48.375 173.656 48.1406 173.906 47.9531C174.188 47.0156 174.406 46.3281 174.562 45.8906C174.719 45.4219 174.828 44.9688 174.891 44.5312C174.984 44.0938 175.078 43.625 175.172 43.125C175.297 42.625 175.5 42 175.781 41.25C175.75 40.7812 175.797 40.375 175.922 40.0312C176.047 39.6562 176.172 39.2969 176.297 38.9531C176.453 38.5781 176.578 38.2031 176.672 37.8281C176.766 37.4219 176.75 36.9531 176.625 36.4219C176.188 36.4531 175.875 36.6094 175.688 36.8906C175.5 37.1406 175.375 37.4844 175.312 37.9219C175.062 38.1719 174.75 38.2969 174.375 38.2969C174.031 38.2656 173.719 38.2969 173.438 38.3906C172.344 37.9531 171.438 37.3281 170.719 36.5156C170 35.7031 169.422 34.75 168.984 33.6562C169.266 32.9375 169.688 32.3438 170.25 31.875C170.812 31.375 171.453 30.9688 172.172 30.6562C172.891 30.3125 173.656 30.0469 174.469 29.8594C175.281 29.6406 176.062 29.4375 176.812 29.25C178.031 29.0312 179.25 28.7812 180.469 28.5C181.688 28.2188 183 28.125 184.406 28.2188C184.594 28.125 184.812 28.0781 185.062 28.0781C185.344 28.0469 185.625 28.0312 185.906 28.0312C186.188 28.0312 186.453 28.0312 186.703 28.0312C186.984 28 187.219 27.9375 187.406 27.8438C187.562 28.0312 187.781 28.1562 188.062 28.2188C188.375 28.25 188.703 28.3906 189.047 28.6406C189.422 28.3594 189.734 28.2969 189.984 28.4531C190.266 28.6094 190.516 28.7812 190.734 28.9688C190.953 29.1562 191.156 29.3281 191.344 29.4844C191.562 29.6406 191.781 29.7188 192 29.7188C192.219 30 192.484 30.2656 192.797 30.5156C193.141 30.7656 193.453 31.0312 193.734 31.3125C194.047 31.5625 194.297 31.8438 194.484 32.1562C194.703 32.4688 194.812 32.8281 194.812 33.2344C194.781 33.3906 194.828 33.4844 194.953 33.5156C195.078 33.5469 195.172 33.6094 195.234 33.7031C195.266 34.6719 195.109 35.5156 194.766 36.2344C194.453 36.9219 194.047 37.5625 193.547 38.1562C193.078 38.75 192.547 39.3125 191.953 39.8438C191.391 40.375 190.875 40.9375 190.406 41.5312C190.719 41.9375 191.078 42.2969 191.484 42.6094C191.891 42.9219 192.297 43.2344 192.703 43.5469C193.141 43.8594 193.547 44.1875 193.922 44.5312C194.297 44.875 194.609 45.2812 194.859 45.75C194.922 45.8125 195 45.875 195.094 45.9375C195.188 45.9688 195.281 46.0156 195.375 46.0781C195.469 46.3906 195.594 46.7188 195.75 47.0625C195.906 47.375 196.031 47.6875 196.125 48C196.25 48.2812 196.328 48.5469 196.359 48.7969C196.391 49.0156 196.328 49.2031 196.172 49.3594ZM187.922 33.7031C186.328 33.6406 184.734 33.7812 183.141 34.125C181.578 34.4688 180.266 34.9531 179.203 35.5781C179.734 36.0156 180.266 36.4062 180.797 36.75C181.359 37.0938 181.797 37.5625 182.109 38.1562C183.328 37.6562 184.406 37.0312 185.344 36.2812C186.281 35.5 187.141 34.6406 187.922 33.7031ZM188.531 48.6562C188.625 48.3438 188.797 48.0938 189.047 47.9062C189.297 47.7188 189.547 47.5469 189.797 47.3906C190.047 47.2031 190.266 47.0156 190.453 46.8281C190.641 46.6094 190.719 46.3125 190.688 45.9375C189.688 45.4062 188.766 45.0938 187.922 45C187.109 44.875 186.328 44.875 185.578 45C184.859 45.0938 184.156 45.25 183.469 45.4688C182.812 45.6875 182.141 45.8438 181.453 45.9375C181.109 46.8438 180.75 47.8281 180.375 48.8906C180 49.9531 179.641 50.9844 179.297 51.9844C180.234 51.8594 181.094 51.6719 181.875 51.4219C182.656 51.1406 183.406 50.8438 184.125 50.5312C184.875 50.2188 185.594 49.9062 186.281 49.5938C187 49.25 187.75 48.9375 188.531 48.6562ZM220.312 57.5156C219.406 57.2969 218.703 56.9375 218.203 56.4375C217.734 55.9062 217.375 55.2969 217.125 54.6094C216.906 53.8906 216.75 53.1094 216.656 52.2656C216.594 51.4219 216.516 50.5469 216.422 49.6406C216.547 49.2344 216.703 48.8906 216.891 48.6094C217.109 48.3281 217.203 47.9375 217.172 47.4375C217.516 46.4375 217.828 45.4688 218.109 44.5312C218.391 43.5938 218.578 42.625 218.672 41.625C218.859 41.3438 219.047 41.1562 219.234 41.0625C219.484 39.2812 219.516 37.4531 219.328 35.5781C219.141 33.7031 218.828 31.9688 218.391 30.375C218.422 30.0312 218.469 29.7812 218.531 29.625C218.594 29.4375 218.594 29.2812 218.531 29.1562C218.469 28.875 218.562 28.7344 218.812 28.7344C219.062 28.7344 219.312 28.7344 219.562 28.7344C219.562 28.1719 219.453 27.625 219.234 27.0938C219.047 26.5312 218.859 25.8906 218.672 25.1719C218.922 24.6094 219.094 24.0625 219.188 23.5312C219.281 23 219.453 22.5156 219.703 22.0781C220.703 22.3906 221.688 22.75 222.656 23.1562C223.625 23.5625 224.578 23.9688 225.516 24.375C226.453 24.75 227.375 25.125 228.281 25.5C229.188 25.8438 230.078 26.125 230.953 26.3438C232.297 27.3125 233.672 28.2812 235.078 29.25C236.516 30.1875 237.812 31.2344 238.969 32.3906C240.156 33.5156 241.141 34.8125 241.922 36.2812C242.703 37.75 243.156 39.4844 243.281 41.4844C243.219 41.6719 243.172 41.8281 243.141 41.9531C243.109 42.0781 243.078 42.2031 243.047 42.3281C243.016 42.4531 243 42.5938 243 42.75C243 42.9062 243 43.125 243 43.4062C241.875 45.375 240.453 47.0312 238.734 48.375C237.016 49.7188 235.141 50.9062 233.109 51.9375C231.078 52.9688 228.953 53.9219 226.734 54.7969C224.547 55.6406 222.406 56.5469 220.312 57.5156ZM224.906 30.9375C224.625 30.9375 224.422 31 224.297 31.125C224.672 32.5312 224.953 33.8594 225.141 35.1094C225.328 36.3594 225.422 37.6094 225.422 38.8594C225.453 40.1094 225.391 41.3906 225.234 42.7031C225.078 44.0156 224.859 45.4375 224.578 46.9688C224.984 46.9375 225.344 46.8594 225.656 46.7344C225.969 46.6094 226.281 46.4688 226.594 46.3125C226.938 46.1562 227.281 46.0156 227.625 45.8906C228 45.7656 228.422 45.6875 228.891 45.6562C229.016 45.4062 229.172 45.2188 229.359 45.0938C229.578 44.9375 229.766 44.7812 229.922 44.625C230.703 44.3125 231.484 43.9844 232.266 43.6406C233.047 43.2969 233.766 42.9062 234.422 42.4688C235.078 42.0312 235.672 41.5312 236.203 40.9688C236.734 40.4062 237.172 39.7344 237.516 38.9531C237.266 38.4844 236.953 38.0938 236.578 37.7812C236.234 37.4375 235.859 37.1094 235.453 36.7969C235.078 36.4531 234.703 36.1094 234.328 35.7656C233.984 35.3906 233.703 34.9688 233.484 34.5C232.984 34.4375 232.547 34.3125 232.172 34.125C231.797 33.9062 231.438 33.7031 231.094 33.5156C230.75 33.2969 230.375 33.0938 229.969 32.9062C229.594 32.7188 229.141 32.6094 228.609 32.5781C227.797 32.1406 227.062 31.8438 226.406 31.6875C225.75 31.5 225.25 31.25 224.906 30.9375ZM269.672 30.6094C269.703 30.8281 269.703 31 269.672 31.125C269.672 31.2188 269.656 31.3125 269.625 31.4062C269.625 31.5 269.625 31.6094 269.625 31.7344C269.625 31.8281 269.656 31.9844 269.719 32.2031C269.062 33.2656 268.297 34 267.422 34.4062C266.578 34.7812 265.656 35.0625 264.656 35.25C263.656 35.4062 262.625 35.5781 261.562 35.7656C260.531 35.9531 259.5 36.3594 258.469 36.9844C258.062 36.8281 257.688 36.8281 257.344 36.9844C257.031 37.1406 256.562 37.1875 255.938 37.125C255.75 37.3125 255.516 37.4531 255.234 37.5469C254.953 37.6094 254.672 37.6875 254.391 37.7812C254.516 38.0625 254.562 38.3594 254.531 38.6719C254.531 38.9531 254.578 39.1875 254.672 39.375C255.766 39.4688 256.969 39.4531 258.281 39.3281C259.625 39.2031 260.938 39.125 262.219 39.0938C262.25 39.25 262.234 39.3594 262.172 39.4219C262.109 39.4531 262.094 39.5312 262.125 39.6562C262.344 39.8125 262.562 40.0156 262.781 40.2656C263 40.4844 263.219 40.7031 263.438 40.9219C263.656 41.1406 263.875 41.3281 264.094 41.4844C264.344 41.6094 264.625 41.6562 264.938 41.625C265.062 41.875 265.141 42.1562 265.172 42.4688C265.234 42.75 265.203 43.0469 265.078 43.3594C264.578 43.7031 264.078 44.0625 263.578 44.4375C263.078 44.7812 262.547 45.0938 261.984 45.375C261.453 45.6562 260.875 45.8906 260.25 46.0781C259.656 46.2344 258.984 46.2969 258.234 46.2656C258.078 46.2656 257.953 46.2656 257.859 46.2656C257.797 46.2656 257.703 46.2188 257.578 46.125C257.328 46.2812 256.969 46.3281 256.5 46.2656C256.062 46.2031 255.719 46.25 255.469 46.4062C255.125 46.25 254.703 46.1875 254.203 46.2188C253.734 46.2188 253.312 46.1562 252.938 46.0312C252.438 46.6875 251.984 47.3906 251.578 48.1406C251.172 48.8906 250.812 49.6875 250.5 50.5312C251.562 50.6875 252.438 50.75 253.125 50.7188C253.844 50.6875 254.516 50.6406 255.141 50.5781C255.766 50.4844 256.406 50.4062 257.062 50.3438C257.719 50.25 258.547 50.2188 259.547 50.25C260.172 49.9062 260.906 49.6875 261.75 49.5938C262.625 49.4688 263.422 49.2812 264.141 49.0312C264.391 49.125 264.609 49.2969 264.797 49.5469C264.984 49.7656 265.156 49.9844 265.312 50.2031C265.5 50.3906 265.688 50.5625 265.875 50.7188C266.062 50.875 266.297 50.9375 266.578 50.9062C266.703 51.0312 266.781 51.1875 266.812 51.375C266.875 51.5312 266.922 51.6875 266.953 51.8438C266.984 52 267.031 52.1406 267.094 52.2656C267.188 52.3594 267.328 52.3906 267.516 52.3594C267.047 53.3906 266.5 54.1875 265.875 54.75C265.281 55.2812 264.594 55.6875 263.812 55.9688C263.031 56.25 262.156 56.4688 261.188 56.625C260.25 56.7812 259.203 56.9688 258.047 57.1875C257.766 57.25 257.531 57.2344 257.344 57.1406C257.156 57.0781 256.938 57.0469 256.688 57.0469C255.969 57.2031 255.109 57.3438 254.109 57.4688C253.109 57.5938 252.094 57.6406 251.062 57.6094C250.031 57.5781 249.047 57.4375 248.109 57.1875C247.172 56.9688 246.406 56.5625 245.812 55.9688C245.562 55.75 245.391 55.5 245.297 55.2188C245.234 54.9062 245.031 54.6719 244.688 54.5156C244.656 54.1094 244.594 53.6562 244.5 53.1562C244.406 52.6562 244.312 52.1406 244.219 51.6094C244.125 51.0469 244.047 50.5 243.984 49.9688C243.953 49.4375 243.984 48.9531 244.078 48.5156C244.172 48.0469 244.359 47.625 244.641 47.25C244.953 46.875 245.062 46.4688 244.969 46.0312C245.125 46 245.219 45.9219 245.25 45.7969C245.281 45.6406 245.406 45.5781 245.625 45.6094C245.812 45.0469 246.016 44.5156 246.234 44.0156C246.453 43.5156 246.672 43.0312 246.891 42.5625C247.141 42.0938 247.375 41.625 247.594 41.1562C247.844 40.6562 248.078 40.1094 248.297 39.5156C247.859 39.1094 247.531 38.6719 247.312 38.2031C247.125 37.7031 246.984 37.2188 246.891 36.75C246.797 36.25 246.719 35.75 246.656 35.25C246.594 34.7188 246.484 34.1875 246.328 33.6562C246.641 33.1875 247.016 32.8125 247.453 32.5312C247.922 32.2188 248.422 31.9688 248.953 31.7812C249.484 31.5938 250.062 31.4375 250.688 31.3125C251.312 31.1875 251.969 31.0469 252.656 30.8906C253.906 30.4844 255.016 30.1719 255.984 29.9531C256.984 29.7344 257.953 29.5625 258.891 29.4375C259.859 29.2812 260.859 29.1406 261.891 29.0156C262.922 28.8906 264.094 28.7031 265.406 28.4531C265.688 28.7344 265.953 28.875 266.203 28.875C266.328 28.5938 266.469 28.5156 266.625 28.6406C266.812 28.7344 266.891 28.6406 266.859 28.3594C267.172 28.8906 267.562 29.3438 268.031 29.7188C268.531 30.0625 269.078 30.3594 269.672 30.6094ZM269.297 35.9062C269.516 35.25 269.859 34.6875 270.328 34.2188C270.828 33.75 271.359 33.3594 271.922 33.0469C272.516 32.7031 273.125 32.4219 273.75 32.2031C274.375 31.9844 274.969 31.7969 275.531 31.6406C276.781 31.1094 278.109 30.6094 279.516 30.1406C280.953 29.6406 282.406 29.2031 283.875 28.8281C285.375 28.4531 286.906 28.2188 288.469 28.125C290.031 28 291.672 28.1875 293.391 28.6875C293.484 29 293.625 29.2969 293.812 29.5781C294 29.8594 294.188 30.1406 294.375 30.4219C294.594 30.7031 294.781 30.9844 294.938 31.2656C295.094 31.5156 295.188 31.7812 295.219 32.0625C295.531 32.3438 295.781 32.6562 295.969 33C296.156 33.3125 296.188 33.7344 296.062 34.2656C295.75 34.5156 295.438 34.75 295.125 34.9688C294.844 35.1562 294.531 35.3281 294.188 35.4844C293.031 35.2031 291.859 35.1094 290.672 35.2031C289.484 35.2969 288.422 35.375 287.484 35.4375C287.203 35.1562 286.859 35.0156 286.453 35.0156C286.078 35.0156 285.672 35.0781 285.234 35.2031C284.828 35.3281 284.406 35.4531 283.969 35.5781C283.562 35.7031 283.172 35.7344 282.797 35.6719C282.484 35.9219 282.094 36.0938 281.625 36.1875C281.188 36.25 280.703 36.3125 280.172 36.375C280.141 36.5312 280.172 36.6406 280.266 36.7031C280.359 36.7344 280.375 36.8281 280.312 36.9844C280.5 37.2031 280.734 37.3594 281.016 37.4531C281.328 37.5469 281.641 37.6406 281.953 37.7344C282.297 37.8281 282.594 37.9531 282.844 38.1094C283.094 38.2344 283.266 38.4531 283.359 38.7656C283.828 38.7656 284.234 38.875 284.578 39.0938C284.922 39.3125 285.203 39.5781 285.422 39.8906C285.641 40.2031 285.797 40.5469 285.891 40.9219C286.016 41.2656 286.078 41.5781 286.078 41.8594C286.172 42.1094 286.281 42.2188 286.406 42.1875C286.531 42.1562 286.672 42.2188 286.828 42.375C286.922 42.7812 287.156 43.2031 287.531 43.6406C287.906 44.0469 288.203 44.5 288.422 45C288.484 45.7812 288.531 46.4844 288.562 47.1094C288.594 47.7031 288.484 48.3125 288.234 48.9375C287.766 50.0938 287.109 51.125 286.266 52.0312C285.453 52.9375 284.516 53.75 283.453 54.4688C282.422 55.1562 281.312 55.75 280.125 56.25C278.938 56.75 277.781 57.1719 276.656 57.5156C276.531 57.4844 276.406 57.4844 276.281 57.5156C276.156 57.5469 276.125 57.4688 276.188 57.2812C275.938 57.5 275.656 57.6406 275.344 57.7031C275.062 57.7656 274.75 57.7812 274.406 57.75C274.062 57.75 273.703 57.7344 273.328 57.7031C272.984 57.6719 272.656 57.6875 272.344 57.75C272.125 57.5312 271.922 57.3125 271.734 57.0938C271.578 56.9062 271.453 56.6562 271.359 56.3438C271.203 56.3438 271.125 56.2656 271.125 56.1094C271.156 55.9531 271.109 55.875 270.984 55.875C271.172 55.5625 271.25 55.3906 271.219 55.3594C271.219 55.2969 271.172 55.25 271.078 55.2188C271.016 55.1875 270.953 55.1562 270.891 55.125C270.828 55.0625 270.812 54.9844 270.844 54.8906C270.969 54.6406 271.016 54.3594 270.984 54.0469C270.953 53.7031 270.922 53.3594 270.891 53.0156C270.859 52.6719 270.875 52.3438 270.938 52.0312C271.031 51.7188 271.266 51.4688 271.641 51.2812C272.703 51.4062 273.703 51.375 274.641 51.1875C275.609 50.9688 276.516 50.6719 277.359 50.2969C278.203 49.9219 279 49.5156 279.75 49.0781C280.531 48.6406 281.297 48.25 282.047 47.9062C282.141 47.625 282.266 47.3906 282.422 47.2031C282.609 47.0156 282.797 46.8438 282.984 46.6875C283.172 46.5312 283.344 46.3594 283.5 46.1719C283.656 45.9844 283.766 45.75 283.828 45.4688C283.859 45.25 283.797 45.125 283.641 45.0938C283.516 45.0312 283.453 44.9062 283.453 44.7188L282.938 44.5781C282.344 44.2344 281.672 43.9531 280.922 43.7344C280.172 43.4844 279.531 43.2188 279 42.9375C278.656 43.125 278.328 43.1719 278.016 43.0781C277.734 42.9844 277.359 42.8906 276.891 42.7969C275.828 42.7344 274.797 42.625 273.797 42.4688C272.828 42.3125 271.891 42.0312 270.984 41.625C270.922 41.4688 270.844 41.3281 270.75 41.2031C270.656 41.0781 270.484 41.0469 270.234 41.1094C270.047 40.8594 269.859 40.625 269.672 40.4062C269.484 40.1562 269.312 39.8906 269.156 39.6094C269.219 39.2344 269.266 38.9219 269.297 38.6719C269.328 38.3906 269.234 38.125 269.016 37.875C269.141 37.4688 269.234 37.1406 269.297 36.8906C269.359 36.6406 269.359 36.3125 269.297 35.9062ZM319.078 55.3125C317.578 55.375 316.25 55.3438 315.094 55.2188C313.969 55.0938 312.859 54.7969 311.766 54.3281C311.703 54.2969 311.641 54.2188 311.578 54.0938C311.516 53.9688 311.453 53.875 311.391 53.8125C311.203 53.7188 310.969 53.6875 310.688 53.7188C310.438 53.7188 310.219 53.6875 310.031 53.625C309.781 53.5 309.391 53.2656 308.859 52.9219C308.328 52.5469 307.844 52.2031 307.406 51.8906C306.844 51.4531 306.312 51.0156 305.812 50.5781C305.312 50.1406 304.875 49.6719 304.5 49.1719C304.406 49.0469 304.281 48.9844 304.125 48.9844C303.969 48.9531 303.828 48.9062 303.703 48.8438C302.797 49.4062 302.031 50.1094 301.406 50.9531C300.781 51.7969 300.188 52.6562 299.625 53.5312C299.062 54.4062 298.469 55.2344 297.844 56.0156C297.219 56.7969 296.422 57.3906 295.453 57.7969C295.172 57.7969 294.922 57.75 294.703 57.6562C294.484 57.5625 294.281 57.4375 294.094 57.2812C293.906 57.1562 293.719 57.0312 293.531 56.9062C293.344 56.7812 293.141 56.6875 292.922 56.625C292.922 56.25 292.844 55.9062 292.688 55.5938C292.562 55.2812 292.422 54.9844 292.266 54.7031C292.141 54.4219 292.047 54.1562 291.984 53.9062C291.922 53.625 291.984 53.3594 292.172 53.1094C291.984 52.9219 291.703 52.7188 291.328 52.5C291.516 52.3125 291.594 52.1406 291.562 51.9844C291.562 51.8281 291.531 51.6719 291.469 51.5156C291.406 51.3594 291.344 51.1875 291.281 51C291.25 50.8125 291.297 50.625 291.422 50.4375C291.578 50.4375 291.766 50.4062 291.984 50.3438C291.797 50.0938 291.703 49.9531 291.703 49.9219C291.734 49.8594 291.703 49.7812 291.609 49.6875C291.547 49.5 291.578 49.3906 291.703 49.3594C291.828 49.2969 291.953 49.2344 292.078 49.1719C292.203 47.6406 292.469 46.2188 292.875 44.9062C293.281 43.5938 293.734 42.3281 294.234 41.1094C294.734 39.8906 295.219 38.6562 295.688 37.4062C296.188 36.1562 296.594 34.8125 296.906 33.375C297.25 33.0312 297.516 32.625 297.703 32.1562C297.922 31.6875 298.141 31.2188 298.359 30.75C298.609 30.2812 298.875 29.8281 299.156 29.3906C299.469 28.9219 299.891 28.5469 300.422 28.2656C300.859 28.2969 301.25 28.4219 301.594 28.6406C301.938 28.8281 302.359 28.9062 302.859 28.875C302.953 29.0312 303.031 29.1875 303.094 29.3438C303.188 29.5 303.297 29.6562 303.422 29.8125L304.125 29.6719C304.469 29.9531 304.766 30.3125 305.016 30.75C305.297 31.1562 305.484 31.5938 305.578 32.0625C305.672 32.5312 305.656 32.9844 305.531 33.4219C305.406 33.8281 305.109 34.1562 304.641 34.4062C304.672 34.5625 304.672 34.6875 304.641 34.7812C304.641 34.8438 304.625 34.9062 304.594 34.9688C304.562 35.0312 304.547 35.0938 304.547 35.1562C304.547 35.2188 304.594 35.3125 304.688 35.4375C304.062 35.9062 303.594 36.5625 303.281 37.4062C302.969 38.25 302.797 39 302.766 39.6562C303.141 39.2812 303.547 38.9219 303.984 38.5781C304.453 38.2031 304.922 37.8438 305.391 37.5C305.891 37.1562 306.359 36.8281 306.797 36.5156C307.266 36.2031 307.688 35.8906 308.062 35.5781C309.094 34.6406 310.078 33.8906 311.016 33.3281C311.984 32.7344 313 32.0781 314.062 31.3594C314.312 31.2969 314.5 31.2969 314.625 31.3594C314.781 31.3906 314.938 31.4375 315.094 31.5C315.094 31.3125 315.031 31.2031 314.906 31.1719C314.812 31.1406 314.781 31.0156 314.812 30.7969C315.281 30.6719 315.688 30.5312 316.031 30.375C316.375 30.1875 316.75 30.0156 317.156 29.8594C317.438 30.1406 317.703 30.4375 317.953 30.75C318.203 31.0312 318.547 31.2031 318.984 31.2656C319.141 31.6094 319.328 31.875 319.547 32.0625C319.766 32.2188 319.984 32.375 320.203 32.5312C320.422 32.6875 320.609 32.875 320.766 33.0938C320.953 33.3125 321.062 33.6562 321.094 34.125C320.969 34.3438 320.828 34.5781 320.672 34.8281C320.547 35.0781 320.422 35.375 320.297 35.7188C319.672 36.2812 319.031 36.7812 318.375 37.2188C317.75 37.6562 317.109 38.0781 316.453 38.4844C315.797 38.8906 315.125 39.2969 314.438 39.7031C313.75 40.1094 313.047 40.5938 312.328 41.1562C312.172 41.375 311.969 41.5781 311.719 41.7656C311.5 41.9219 311.266 42.0938 311.016 42.2812C310.766 42.4375 310.531 42.6094 310.312 42.7969C310.094 42.9844 309.922 43.2031 309.797 43.4531C309.703 43.4844 309.609 43.5 309.516 43.5C309.422 43.5 309.328 43.5156 309.234 43.5469C309.141 43.7656 308.984 43.9375 308.766 44.0625C308.578 44.1875 308.453 44.3594 308.391 44.5781C308.859 45.5781 309.469 46.3438 310.219 46.875C310.969 47.4062 311.812 47.7969 312.75 48.0469C313.688 48.2656 314.703 48.3906 315.797 48.4219C316.891 48.4219 318.031 48.4219 319.219 48.4219C319.344 48.3906 319.391 48.3281 319.359 48.2344C319.359 48.1094 319.438 48.0625 319.594 48.0938C320.344 48.3438 320.922 48.7031 321.328 49.1719C321.734 49.6094 322.219 50.0469 322.781 50.4844C322.719 51.6719 322.359 52.6562 321.703 53.4375C321.047 54.2188 320.172 54.8438 319.078 55.3125Z" fill="black"/>
<path d="M321.75 62.7902H374.25M369.875 30.7069V62.7902M352.375 23.4152L369.875 37.9985" stroke="black" stroke-width="4" stroke-linecap="round" stroke-linejoin="round"/>
<path d="M351.412 24.2581C351.73 23.9038 352.007 23.5154 352.239 23.1002C353.963 20.0158 352.896 15.8348 349.906 14.0527C346.919 12.2735 342.878 13.411 341.152 16.4925C340.879 16.9796 340.729 17.3602 340.592 17.8108C335.377 17.4083 330.373 19.9619 327.583 24.9494L351.929 39.4583C354.719 34.4708 354.358 28.7192 351.412 24.2581Z" stroke="black" stroke-width="4" stroke-linejoin="round"/>
</svg>
